<?xml version="1.0" encoding="UTF-8" standalone="no"?>
<!DOCTYPE svg PUBLIC "-//W3C//DTD SVG 1.1//EN"
 "http://www.w3.org/Graphics/SVG/1.1/DTD/svg11.dtd">
<!-- Generated by graphviz version 2.36.0 (20140111.2315)
 -->
<!-- Title: G Pages: 1 -->
<svg width="1268pt" height="680pt"
 viewBox="0.00 0.00 1268.00 680.00" xmlns="http://www.w3.org/2000/svg" xmlns:xlink="http://www.w3.org/1999/xlink">
<g id="graph0" class="graph" transform="scale(1 1) rotate(0) translate(4 676)">
<title>G</title>
<polygon fill="white" stroke="none" points="-4,4 -4,-676 1264,-676 1264,4 -4,4"/>
<!-- Shape_i{1} &#160;&#160;(0.000s,0.008%) -->
<g id="node1" class="node"><title>Shape_i{1} &#160;&#160;(0.000s,0.008%)</title>
<ellipse fill="cyan" stroke="black" cx="494" cy="-458" rx="120.359" ry="18"/>
<text text-anchor="middle" x="494" y="-454.3" font-family="Times,serif" font-size="14.00">Shape_i{1} &#160;&#160;(0.000s,0.008%)</text>
</g>
<!-- MakeVector &#160;&#160;(0.000s,0.047%) -->
<g id="node7" class="node"><title>MakeVector &#160;&#160;(0.000s,0.047%)</title>
<ellipse fill="none" stroke="black" cx="339" cy="-370" rx="123.234" ry="18"/>
<text text-anchor="middle" x="339" y="-366.3" font-family="Times,serif" font-size="14.00">MakeVector &#160;&#160;(0.000s,0.047%)</text>
</g>
<!-- Shape_i{1} &#160;&#160;(0.000s,0.008%)&#45;&gt;MakeVector &#160;&#160;(0.000s,0.047%) -->
<g id="edge6" class="edge"><title>Shape_i{1} &#160;&#160;(0.000s,0.008%)&#45;&gt;MakeVector &#160;&#160;(0.000s,0.047%)</title>
<path fill="none" stroke="black" d="M464.114,-440.418C439.562,-426.796 404.601,-407.398 377.874,-392.569"/>
<polygon fill="black" stroke="black" points="379.236,-389.322 368.794,-387.531 375.84,-395.443 379.236,-389.322"/>
<text text-anchor="middle" x="509" y="-410.3" font-family="Times,serif" font-size="14.00">1 TensorType(int64, scalar)</text>
</g>
<!-- TensorType(float64, matrix) -->
<g id="node2" class="node"><title>TensorType(float64, matrix)</title>
<polygon fill="green" stroke="black" points="600,-584 424,-584 424,-548 600,-548 600,-584"/>
<text text-anchor="middle" x="512" y="-562.3" font-family="Times,serif" font-size="14.00">TensorType(float64, matrix)</text>
</g>
<!-- TensorType(float64, matrix)&#45;&gt;Shape_i{1} &#160;&#160;(0.000s,0.008%) -->
<g id="edge1" class="edge"><title>TensorType(float64, matrix)&#45;&gt;Shape_i{1} &#160;&#160;(0.000s,0.008%)</title>
<path fill="none" stroke="black" d="M495.193,-547.823C491.05,-542.525 487.179,-536.392 485,-530 480.176,-515.849 481.875,-499.315 485.031,-485.764"/>
<polygon fill="black" stroke="black" points="488.42,-486.639 487.645,-476.072 481.662,-484.816 488.42,-486.639"/>
<text text-anchor="middle" x="565" y="-508.3" font-family="Times,serif" font-size="14.00">TensorType(float64, matrix)</text>
</g>
<!-- Dot22 &#160;&#160;(0.001s,7.382%) -->
<g id="node10" class="node"><title>Dot22 &#160;&#160;(0.001s,7.382%)</title>
<ellipse fill="none" stroke="black" cx="889" cy="-370" rx="100.611" ry="18"/>
<text text-anchor="middle" x="889" y="-366.3" font-family="Times,serif" font-size="14.00">Dot22 &#160;&#160;(0.001s,7.382%)</text>
</g>
<!-- TensorType(float64, matrix)&#45;&gt;Dot22 &#160;&#160;(0.001s,7.382%) -->
<g id="edge10" class="edge"><title>TensorType(float64, matrix)&#45;&gt;Dot22 &#160;&#160;(0.001s,7.382%)</title>
<path fill="none" stroke="black" d="M600.241,-555.766C616.848,-550.417 632.803,-542.284 645,-530 674.089,-500.703 639.582,-469.948 668,-440 699.7,-406.593 747.293,-389.268 790.203,-380.321"/>
<polygon fill="black" stroke="black" points="790.993,-383.733 800.136,-378.38 789.65,-376.863 790.993,-383.733"/>
<text text-anchor="middle" x="753" y="-454.3" font-family="Times,serif" font-size="14.00">1 TensorType(float64, matrix)</text>
</g>
<!-- Shape_i{0} &#160;&#160;(0.000s,0.008%) -->
<g id="node3" class="node"><title>Shape_i{0} &#160;&#160;(0.000s,0.008%)</title>
<ellipse fill="cyan" stroke="black" cx="235" cy="-512" rx="120.359" ry="18"/>
<text text-anchor="middle" x="235" y="-508.3" font-family="Times,serif" font-size="14.00">Shape_i{0} &#160;&#160;(0.000s,0.008%)</text>
</g>
<!-- Shape_i{0} &#160;&#160;(0.000s,0.008%)&#45;&gt;MakeVector &#160;&#160;(0.000s,0.047%) -->
<g id="edge5" class="edge"><title>Shape_i{0} &#160;&#160;(0.000s,0.008%)&#45;&gt;MakeVector &#160;&#160;(0.000s,0.047%)</title>
<path fill="none" stroke="black" d="M219.08,-494.095C214.988,-488.714 211.139,-482.468 209,-476 203.975,-460.81 200.754,-453.712 209,-440 223.187,-416.409 248.457,-400.454 272.969,-389.885"/>
<polygon fill="black" stroke="black" points="274.355,-393.1 282.302,-386.094 271.72,-386.615 274.355,-393.1"/>
<text text-anchor="middle" x="287" y="-454.3" font-family="Times,serif" font-size="14.00">0 TensorType(int64, scalar)</text>
</g>
<!-- name=X TensorType(float64, matrix) -->
<g id="node4" class="node"><title>name=X TensorType(float64, matrix)</title>
<polygon fill="green" stroke="black" points="517,-672 289,-672 289,-636 517,-636 517,-672"/>
<text text-anchor="middle" x="403" y="-650.3" font-family="Times,serif" font-size="14.00">name=X TensorType(float64, matrix)</text>
</g>
<!-- name=X TensorType(float64, matrix)&#45;&gt;Shape_i{0} &#160;&#160;(0.000s,0.008%) -->
<g id="edge2" class="edge"><title>name=X TensorType(float64, matrix)&#45;&gt;Shape_i{0} &#160;&#160;(0.000s,0.008%)</title>
<path fill="none" stroke="black" d="M377.404,-635.934C369.443,-630.401 360.73,-624.111 353,-618 319.757,-591.72 283.651,-558.908 260.251,-537.025"/>
<polygon fill="black" stroke="black" points="262.51,-534.344 252.825,-530.048 257.717,-539.446 262.51,-534.344"/>
<text text-anchor="middle" x="433" y="-606.3" font-family="Times,serif" font-size="14.00">TensorType(float64, matrix)</text>
</g>
<!-- Dot22 &#160;&#160;(0.006s,51.040%) -->
<g id="node5" class="node"><title>Dot22 &#160;&#160;(0.006s,51.040%)</title>
<ellipse fill="none" stroke="black" cx="747" cy="-566" rx="104.937" ry="18"/>
<text text-anchor="middle" x="747" y="-562.3" font-family="Times,serif" font-size="14.00">Dot22 &#160;&#160;(0.006s,51.040%)</text>
</g>
<!-- name=X TensorType(float64, matrix)&#45;&gt;Dot22 &#160;&#160;(0.006s,51.040%) -->
<g id="edge3" class="edge"><title>name=X TensorType(float64, matrix)&#45;&gt;Dot22 &#160;&#160;(0.006s,51.040%)</title>
<path fill="none" stroke="black" d="M455.111,-635.996C488.576,-625.417 533.092,-611.977 573,-602 603.617,-594.346 637.588,-587.214 667.327,-581.411"/>
<polygon fill="black" stroke="black" points="668.085,-584.83 677.239,-579.496 666.757,-577.957 668.085,-584.83"/>
<text text-anchor="middle" x="658" y="-606.3" font-family="Times,serif" font-size="14.00">0 TensorType(float64, matrix)</text>
</g>
<!-- Elemwise{ScalarSigmoid}[(0, 0)] &#160;&#160;(0.005s,36.094%) -->
<g id="node8" class="node"><title>Elemwise{ScalarSigmoid}[(0, 0)] &#160;&#160;(0.005s,36.094%)</title>
<ellipse fill="#ffaabb" stroke="black" cx="1054" cy="-458" rx="206.522" ry="18"/>
<text text-anchor="middle" x="1054" y="-454.3" font-family="Times,serif" font-size="14.00">Elemwise{ScalarSigmoid}[(0, 0)] &#160;&#160;(0.005s,36.094%)</text>
</g>
<!-- Dot22 &#160;&#160;(0.006s,51.040%)&#45;&gt;Elemwise{ScalarSigmoid}[(0, 0)] &#160;&#160;(0.005s,36.094%) -->
<g id="edge7" class="edge"><title>Dot22 &#160;&#160;(0.006s,51.040%)&#45;&gt;Elemwise{ScalarSigmoid}[(0, 0)] &#160;&#160;(0.005s,36.094%)</title>
<path fill="none" stroke="red" d="M791.64,-549.587C845.752,-530.903 937.049,-499.381 996.412,-478.884"/>
<polygon fill="red" stroke="red" points="997.707,-482.139 1006.02,-475.567 995.423,-475.523 997.707,-482.139"/>
<text text-anchor="middle" x="1025" y="-508.3" font-family="Times,serif" font-size="14.00">TensorType(float64, matrix)</text>
</g>
<!-- TensorType(float64, matrix) id=4 -->
<g id="node6" class="node"><title>TensorType(float64, matrix) id=4</title>
<polygon fill="green" stroke="black" points="849.25,-672 644.75,-672 644.75,-636 849.25,-636 849.25,-672"/>
<text text-anchor="middle" x="747" y="-650.3" font-family="Times,serif" font-size="14.00">TensorType(float64, matrix) id=4</text>
</g>
<!-- TensorType(float64, matrix) id=4&#45;&gt;Dot22 &#160;&#160;(0.006s,51.040%) -->
<g id="edge4" class="edge"><title>TensorType(float64, matrix) id=4&#45;&gt;Dot22 &#160;&#160;(0.006s,51.040%)</title>
<path fill="none" stroke="black" d="M747,-635.597C747,-623.746 747,-607.817 747,-594.292"/>
<polygon fill="black" stroke="black" points="750.5,-594.084 747,-584.084 743.5,-594.084 750.5,-594.084"/>
<text text-anchor="middle" x="832" y="-606.3" font-family="Times,serif" font-size="14.00">1 TensorType(float64, matrix)</text>
</g>
<!-- Elemwise{Cast{float64}} &#160;&#160;(0.000s,0.030%) -->
<g id="node9" class="node"><title>Elemwise{Cast{float64}} &#160;&#160;(0.000s,0.030%)</title>
<ellipse fill="#ffaabb" stroke="black" cx="339" cy="-282" rx="172.327" ry="18"/>
<text text-anchor="middle" x="339" y="-278.3" font-family="Times,serif" font-size="14.00">Elemwise{Cast{float64}} &#160;&#160;(0.000s,0.030%)</text>
</g>
<!-- MakeVector &#160;&#160;(0.000s,0.047%)&#45;&gt;Elemwise{Cast{float64}} &#160;&#160;(0.000s,0.030%) -->
<g id="edge8" class="edge"><title>MakeVector &#160;&#160;(0.000s,0.047%)&#45;&gt;Elemwise{Cast{float64}} &#160;&#160;(0.000s,0.030%)</title>
<path fill="none" stroke="black" d="M339,-351.597C339,-339.746 339,-323.817 339,-310.292"/>
<polygon fill="black" stroke="black" points="342.5,-310.084 339,-300.084 335.5,-310.084 342.5,-310.084"/>
<text text-anchor="middle" x="413" y="-322.3" font-family="Times,serif" font-size="14.00">TensorType(int64, vector)</text>
</g>
<!-- Elemwise{ScalarSigmoid}[(0, 0)] &#160;&#160;(0.005s,36.094%)&#45;&gt;Dot22 &#160;&#160;(0.001s,7.382%) -->
<g id="edge9" class="edge"><title>Elemwise{ScalarSigmoid}[(0, 0)] &#160;&#160;(0.005s,36.094%)&#45;&gt;Dot22 &#160;&#160;(0.001s,7.382%)</title>
<path fill="none" stroke="black" d="M1021.79,-440.214C995.222,-426.364 957.392,-406.647 928.902,-391.798"/>
<polygon fill="black" stroke="black" points="930.492,-388.679 920.006,-387.161 927.257,-394.887 930.492,-388.679"/>
<text text-anchor="middle" x="1071" y="-410.3" font-family="Times,serif" font-size="14.00">0 TensorType(float64, matrix)</text>
</g>
<!-- Subtensor{int64} &#160;&#160;(0.000s,0.008%) -->
<g id="node11" class="node"><title>Subtensor{int64} &#160;&#160;(0.000s,0.008%)</title>
<ellipse fill="#ffaaff" stroke="black" cx="442" cy="-194" rx="141.531" ry="18"/>
<text text-anchor="middle" x="442" y="-190.3" font-family="Times,serif" font-size="14.00">Subtensor{int64} &#160;&#160;(0.000s,0.008%)</text>
</g>
<!-- Elemwise{Cast{float64}} &#160;&#160;(0.000s,0.030%)&#45;&gt;Subtensor{int64} &#160;&#160;(0.000s,0.008%) -->
<g id="edge11" class="edge"><title>Elemwise{Cast{float64}} &#160;&#160;(0.000s,0.030%)&#45;&gt;Subtensor{int64} &#160;&#160;(0.000s,0.008%)</title>
<path fill="none" stroke="blue" d="M349.78,-263.96C357.108,-253.302 367.53,-239.787 379,-230 384.628,-225.198 391.016,-220.747 397.514,-216.742"/>
<polygon fill="blue" stroke="blue" points="399.511,-219.629 406.381,-211.564 395.981,-213.584 399.511,-219.629"/>
<text text-anchor="middle" x="463.5" y="-234.3" font-family="Times,serif" font-size="14.00">0 TensorType(float64, vector)</text>
</g>
<!-- Subtensor{int64} &#160;&#160;(0.000s,0.024%) -->
<g id="node13" class="node"><title>Subtensor{int64} &#160;&#160;(0.000s,0.024%)</title>
<ellipse fill="#ffaaff" stroke="black" cx="141" cy="-194" rx="141.531" ry="18"/>
<text text-anchor="middle" x="141" y="-190.3" font-family="Times,serif" font-size="14.00">Subtensor{int64} &#160;&#160;(0.000s,0.024%)</text>
</g>
<!-- Elemwise{Cast{float64}} &#160;&#160;(0.000s,0.030%)&#45;&gt;Subtensor{int64} &#160;&#160;(0.000s,0.024%) -->
<g id="edge13" class="edge"><title>Elemwise{Cast{float64}} &#160;&#160;(0.000s,0.030%)&#45;&gt;Subtensor{int64} &#160;&#160;(0.000s,0.024%)</title>
<path fill="none" stroke="blue" d="M245.124,-266.818C226.808,-261.824 208.26,-255.086 192,-246 180.215,-239.415 169.311,-229.331 160.636,-219.863"/>
<polygon fill="blue" stroke="blue" points="163.114,-217.38 153.903,-212.145 157.84,-221.981 163.114,-217.38"/>
<text text-anchor="middle" x="276.5" y="-234.3" font-family="Times,serif" font-size="14.00">0 TensorType(float64, vector)</text>
</g>
<!-- Elemwise{ScalarSigmoid}[(0, 0)] &#160;&#160;(0.000s,0.912%) -->
<g id="node15" class="node"><title>Elemwise{ScalarSigmoid}[(0, 0)] &#160;&#160;(0.000s,0.912%)</title>
<ellipse fill="#ffaabb" stroke="black" cx="889" cy="-282" rx="202.198" ry="18"/>
<text text-anchor="middle" x="889" y="-278.3" font-family="Times,serif" font-size="14.00">Elemwise{ScalarSigmoid}[(0, 0)] &#160;&#160;(0.000s,0.912%)</text>
</g>
<!-- Dot22 &#160;&#160;(0.001s,7.382%)&#45;&gt;Elemwise{ScalarSigmoid}[(0, 0)] &#160;&#160;(0.000s,0.912%) -->
<g id="edge15" class="edge"><title>Dot22 &#160;&#160;(0.001s,7.382%)&#45;&gt;Elemwise{ScalarSigmoid}[(0, 0)] &#160;&#160;(0.000s,0.912%)</title>
<path fill="none" stroke="red" d="M889,-351.597C889,-339.746 889,-323.817 889,-310.292"/>
<polygon fill="red" stroke="red" points="892.5,-310.084 889,-300.084 885.5,-310.084 892.5,-310.084"/>
<text text-anchor="middle" x="969" y="-322.3" font-family="Times,serif" font-size="14.00">TensorType(float64, matrix)</text>
</g>
<!-- Elemwise{Composite{((i0 / i1) / i2)}}[(0, 0)] &#160;&#160;(0.000s,0.008%) -->
<g id="node18" class="node"><title>Elemwise{Composite{((i0 / i1) / i2)}}[(0, 0)] &#160;&#160;(0.000s,0.008%)</title>
<ellipse fill="#ffaabb" stroke="black" cx="442" cy="-106" rx="243.592" ry="18"/>
<text text-anchor="middle" x="442" y="-102.3" font-family="Times,serif" font-size="14.00">Elemwise{Composite{((i0 / i1) / i2)}}[(0, 0)] &#160;&#160;(0.000s,0.008%)</text>
</g>
<!-- Subtensor{int64} &#160;&#160;(0.000s,0.008%)&#45;&gt;Elemwise{Composite{((i0 / i1) / i2)}}[(0, 0)] &#160;&#160;(0.000s,0.008%) -->
<g id="edge20" class="edge"><title>Subtensor{int64} &#160;&#160;(0.000s,0.008%)&#45;&gt;Elemwise{Composite{((i0 / i1) / i2)}}[(0, 0)] &#160;&#160;(0.000s,0.008%)</title>
<path fill="none" stroke="black" d="M442,-175.597C442,-163.746 442,-147.817 442,-134.292"/>
<polygon fill="black" stroke="black" points="445.5,-134.084 442,-124.084 438.5,-134.084 445.5,-134.084"/>
<text text-anchor="middle" x="525.5" y="-146.3" font-family="Times,serif" font-size="14.00">2 TensorType(float64, scalar)</text>
</g>
<!-- val=1 int64 -->
<g id="node12" class="node"><title>val=1 int64</title>
<polygon fill="green" stroke="black" points="610.25,-300 529.75,-300 529.75,-264 610.25,-264 610.25,-300"/>
<text text-anchor="middle" x="570" y="-278.3" font-family="Times,serif" font-size="14.00">val=1 int64</text>
</g>
<!-- val=1 int64&#45;&gt;Subtensor{int64} &#160;&#160;(0.000s,0.008%) -->
<g id="edge12" class="edge"><title>val=1 int64&#45;&gt;Subtensor{int64} &#160;&#160;(0.000s,0.008%)</title>
<path fill="none" stroke="black" d="M566.407,-263.724C563.278,-252.695 557.674,-238.855 548,-230 540.709,-223.327 532.117,-217.923 523.03,-213.548"/>
<polygon fill="black" stroke="black" points="524.373,-210.315 513.809,-209.507 521.563,-216.727 524.373,-210.315"/>
<text text-anchor="middle" x="580" y="-234.3" font-family="Times,serif" font-size="14.00">1 int64</text>
</g>
<!-- Subtensor{int64} &#160;&#160;(0.000s,0.024%)&#45;&gt;Elemwise{Composite{((i0 / i1) / i2)}}[(0, 0)] &#160;&#160;(0.000s,0.008%) -->
<g id="edge19" class="edge"><title>Subtensor{int64} &#160;&#160;(0.000s,0.024%)&#45;&gt;Elemwise{Composite{((i0 / i1) / i2)}}[(0, 0)] &#160;&#160;(0.000s,0.008%)</title>
<path fill="none" stroke="black" d="M177.951,-176.537C203.65,-165.577 238.92,-151.499 271,-142 293.246,-135.413 317.481,-129.635 340.525,-124.772"/>
<polygon fill="black" stroke="black" points="341.236,-128.199 350.318,-122.744 339.817,-121.345 341.236,-128.199"/>
<text text-anchor="middle" x="354.5" y="-146.3" font-family="Times,serif" font-size="14.00">1 TensorType(float64, scalar)</text>
</g>
<!-- val=0 int64 -->
<g id="node14" class="node"><title>val=0 int64</title>
<polygon fill="green" stroke="black" points="148.25,-300 67.75,-300 67.75,-264 148.25,-264 148.25,-300"/>
<text text-anchor="middle" x="108" y="-278.3" font-family="Times,serif" font-size="14.00">val=0 int64</text>
</g>
<!-- val=0 int64&#45;&gt;Subtensor{int64} &#160;&#160;(0.000s,0.024%) -->
<g id="edge14" class="edge"><title>val=0 int64&#45;&gt;Subtensor{int64} &#160;&#160;(0.000s,0.024%)</title>
<path fill="none" stroke="black" d="M107.275,-263.884C107.422,-253.698 108.643,-240.714 113,-230 114.402,-226.554 116.256,-223.174 118.346,-219.955"/>
<polygon fill="black" stroke="black" points="121.178,-222.012 124.277,-211.881 115.536,-217.868 121.178,-222.012"/>
<text text-anchor="middle" x="133" y="-234.3" font-family="Times,serif" font-size="14.00">1 int64</text>
</g>
<!-- TensorType(float64, matrix) id=14 -->
<g id="node16" class="node"><title>TensorType(float64, matrix) id=14</title>
<polygon fill="blue" stroke="black" points="814,-212 602,-212 602,-176 814,-176 814,-212"/>
<text text-anchor="middle" x="708" y="-190.3" font-family="Times,serif" font-size="14.00">TensorType(float64, matrix) id=14</text>
</g>
<!-- Elemwise{ScalarSigmoid}[(0, 0)] &#160;&#160;(0.000s,0.912%)&#45;&gt;TensorType(float64, matrix) id=14 -->
<g id="edge16" class="edge"><title>Elemwise{ScalarSigmoid}[(0, 0)] &#160;&#160;(0.000s,0.912%)&#45;&gt;TensorType(float64, matrix) id=14</title>
<path fill="none" stroke="black" d="M818.58,-265.026C802.466,-260.043 785.75,-253.762 771,-246 757.372,-238.828 743.882,-228.468 732.903,-218.956"/>
<polygon fill="black" stroke="black" points="735.175,-216.292 725.387,-212.237 730.51,-221.511 735.175,-216.292"/>
<text text-anchor="middle" x="851" y="-234.3" font-family="Times,serif" font-size="14.00">TensorType(float64, matrix)</text>
</g>
<!-- Sum{acc_dtype=float64} &#160;&#160;(0.000s,0.118%) -->
<g id="node17" class="node"><title>Sum{acc_dtype=float64} &#160;&#160;(0.000s,0.118%)</title>
<ellipse fill="none" stroke="black" cx="1003" cy="-194" rx="170.402" ry="18"/>
<text text-anchor="middle" x="1003" y="-190.3" font-family="Times,serif" font-size="14.00">Sum{acc_dtype=float64} &#160;&#160;(0.000s,0.118%)</text>
</g>
<!-- Elemwise{ScalarSigmoid}[(0, 0)] &#160;&#160;(0.000s,0.912%)&#45;&gt;Sum{acc_dtype=float64} &#160;&#160;(0.000s,0.118%) -->
<g id="edge17" class="edge"><title>Elemwise{ScalarSigmoid}[(0, 0)] &#160;&#160;(0.000s,0.912%)&#45;&gt;Sum{acc_dtype=float64} &#160;&#160;(0.000s,0.118%)</title>
<path fill="none" stroke="black" d="M911.523,-264.009C928.932,-250.876 953.215,-232.557 972.387,-218.094"/>
<polygon fill="black" stroke="black" points="974.649,-220.772 980.524,-211.956 970.433,-215.184 974.649,-220.772"/>
<text text-anchor="middle" x="1036" y="-234.3" font-family="Times,serif" font-size="14.00">TensorType(float64, matrix)</text>
</g>
<!-- Sum{acc_dtype=float64} &#160;&#160;(0.000s,0.118%)&#45;&gt;Elemwise{Composite{((i0 / i1) / i2)}}[(0, 0)] &#160;&#160;(0.000s,0.008%) -->
<g id="edge18" class="edge"><title>Sum{acc_dtype=float64} &#160;&#160;(0.000s,0.118%)&#45;&gt;Elemwise{Composite{((i0 / i1) / i2)}}[(0, 0)] &#160;&#160;(0.000s,0.008%)</title>
<path fill="none" stroke="red" d="M910.677,-178.847C812.449,-163.789 657.083,-139.972 552.439,-123.93"/>
<polygon fill="red" stroke="red" points="552.889,-120.458 542.474,-122.402 551.828,-127.377 552.889,-120.458"/>
<text text-anchor="middle" x="856.5" y="-146.3" font-family="Times,serif" font-size="14.00">0 TensorType(float64, scalar)</text>
</g>
<!-- TensorType(float64, scalar) id=16 -->
<g id="node19" class="node"><title>TensorType(float64, scalar) id=16</title>
<polygon fill="blue" stroke="black" points="546,-36 338,-36 338,-0 546,-0 546,-36"/>
<text text-anchor="middle" x="442" y="-14.3" font-family="Times,serif" font-size="14.00">TensorType(float64, scalar) id=16</text>
</g>
<!-- Elemwise{Composite{((i0 / i1) / i2)}}[(0, 0)] &#160;&#160;(0.000s,0.008%)&#45;&gt;TensorType(float64, scalar) id=16 -->
<g id="edge21" class="edge"><title>Elemwise{Composite{((i0 / i1) / i2)}}[(0, 0)] &#160;&#160;(0.000s,0.008%)&#45;&gt;TensorType(float64, scalar) id=16</title>
<path fill="none" stroke="black" d="M442,-87.5966C442,-75.7459 442,-59.8169 442,-46.2917"/>
<polygon fill="black" stroke="black" points="445.5,-46.084 442,-36.084 438.5,-46.084 445.5,-46.084"/>
<text text-anchor="middle" x="520" y="-58.3" font-family="Times,serif" font-size="14.00">TensorType(float64, scalar)</text>
</g>
</g>
</svg>
