<svg viewBox="0 0 334 77" xmlns="http://www.w3.org/2000/svg" fill-rule="evenodd" clip-rule="evenodd" stroke-linejoin="round" stroke-miterlimit="1.414"><path d="M22.64 5.531v14.907h19.594v6.703H22.64v28.5c0 3.875.735 6.578 2.203 8.109 1.469 1.531 4.032 2.297 7.688 2.297h9.703v6.891H31.687c-6.469 0-11.031-1.297-13.687-3.891-2.657-2.594-3.985-7.063-3.985-13.406v-28.5H0v-6.703h14.015V5.531h8.625zM100.875 40.406v32.531h-8.672V40.406c0-4.718-.828-8.187-2.485-10.406-1.656-2.219-4.25-3.328-7.781-3.328-4.031 0-7.141 1.437-9.328 4.312-2.156 2.844-3.234 6.938-3.234 12.282v29.671H60.75V0h8.625v28.312c1.531-3 3.609-5.265 6.234-6.796 2.625-1.563 5.734-2.344 9.328-2.344 5.344 0 9.328 1.766 11.953 5.297 2.656 3.5 3.985 8.812 3.985 15.937zM200.015 46.547h-2.859c-5.031 0-8.828.891-11.391 2.672-2.531 1.75-3.797 4.375-3.797 7.875 0 3.156.953 5.609 2.86 7.359 1.906 1.75 4.547 2.625 7.922 2.625 4.75 0 8.484-1.64 11.203-4.922 2.718-3.312 4.093-7.875 4.125-13.687v-1.922h-8.063zm16.735-3.563v29.954h-8.672v-7.782c-1.844 3.125-4.172 5.438-6.985 6.938-2.781 1.469-6.172 2.203-10.172 2.203-5.343 0-9.609-1.5-12.796-4.5-3.188-3.031-4.782-7.078-4.782-12.141 0-5.843 1.953-10.281 5.86-13.312 3.937-3.031 9.703-4.547 17.297-4.547h11.578v-1.359c-.032-4.188-1.094-7.219-3.188-9.094-2.094-1.906-5.437-2.86-10.031-2.86-2.938 0-5.906.422-8.906 1.266-3 .844-5.922 2.078-8.766 3.703v-8.625c3.188-1.219 6.234-2.125 9.141-2.719 2.937-.625 5.781-.937 8.531-.937 4.344 0 8.047.641 11.109 1.922 3.094 1.281 5.594 3.203 7.5 5.765 1.188 1.563 2.032 3.5 2.532 5.813.5 2.281.75 5.719.75 10.312zM274.125 40.406v32.531h-8.672V40.406c0-4.718-.828-8.187-2.485-10.406-1.656-2.219-4.25-3.328-7.781-3.328-4.031 0-7.141 1.437-9.328 4.312-2.156 2.844-3.234 6.938-3.234 12.282v29.671H234v-52.5h8.625v7.875c1.531-3 3.609-5.265 6.234-6.796 2.625-1.563 5.734-2.344 9.328-2.344 5.344 0 9.328 1.766 11.953 5.297 2.656 3.5 3.985 8.812 3.985 15.937zM311.484 26.484c-4.375 0-7.688 1.704-9.938 5.11-2.25 3.406-3.375 8.453-3.375 15.14 0 6.657 1.125 11.704 3.375 15.141 2.25 3.406 5.563 5.109 9.938 5.109 4.406 0 7.734-1.703 9.984-5.109 2.25-3.437 3.375-8.484 3.375-15.141 0-6.687-1.125-11.734-3.375-15.14-2.25-3.406-5.578-5.11-9.984-5.11zm0-7.312c7.281 0 12.844 2.359 16.687 7.078 3.875 4.719 5.813 11.547 5.813 20.484 0 8.969-1.922 15.813-5.766 20.532-3.843 4.687-9.422 7.031-16.734 7.031-7.281 0-12.844-2.344-16.688-7.031-3.843-4.719-5.765-11.563-5.765-20.532 0-8.937 1.922-15.765 5.765-20.484 3.844-4.719 9.407-7.078 16.688-7.078z" fill="#11557c" fill-rule="nonzero" stroke="#fff" stroke-width=".7"/><path d="M134.288 75.725c-6.943-1.349-11.004-3.202-14.915-8.805-2.839-4.067-3.295-7.399-3.349-13.129-.026-2.737.052-3.331.61-4.682l.64-1.547.762 1.652c.877 1.9 1.735 3.243 2.299 3.598.335.212.423-.23.604-3.044.116-1.81.289-3.808.384-4.44.173-1.146.177-1.151 1.688-1.725 2.879-1.095 8.234-1.235 17.879-.467 4.421.353 13.936.547 14.946-.328 1.047-.908 1.174-1.322.843-3.81-.391-2.938.024-3.604-1.22-6.056-3.225-6.358-8.575-9.066-15.651-9.084-6.374-.016-11.486 2.316-14.577 7.508-2.719 4.568-3.931 9.464-4.648 18.768l-.201 2.612-.605-.87c-2.899-4.163-4.696-11.432-3.449-16.963.965-4.283 2.936-8.004 6.135-11.582 2.761-3.089 7.305-4.863 12.754-5.903 3.509-.669 5.91-.669 9.42 0 5.449 1.04 9.398 3.026 12.159 6.115 3.165 3.54 5.167 7.294 6.1 11.44.63 2.799.732 7.043.202 8.383-.464 1.174-3.886 4.995-4.001 4.467-.048-.216.051-.589.219-.827.471-.669.045-.944-.671-.433-.556.397-.653.408-.977.111-.684-.625-.935.024-.308.795.725.892.738 1.192.051 1.192-.294 0-.602.084-.684.185-.655.804-10.805.994-18.863.352-5.959-.475-10.697-.373-11.805.252-.912.515-2.12 2.335-2.528 3.808-.387 1.401-.163 5.65.389 7.355.557 1.72 2.531 4.226 4.591 5.827 5.758 4.476 15.264 4.527 21.054.114 2.911-2.219 5.261-5.784 4.571-6.935-.174-.291-.317-.858-.317-1.259 0-.73.835-2.236 1.382-2.493.772-.362 1.643-1.806 1.643-2.723 0-1.061.375-1.766.939-1.766.877 0 .773-2.724-.149-3.891-.708-.896-.644-1.081.173-.497.528.376.688.415.688.166 0-.178.209-.453.464-.611.415-.256.437-.242.206.131-.141.23-.221 1.348-.177 2.485.073 1.874.14 2.101.719 2.448.521.311.665.641.783 1.799.101.997.408 1.839 1.034 2.841.724 1.158.864 1.598.75 2.364-.078.529-.382 1.14-.694 1.397-.69.568-3.482 4.241-3.764 4.95-.51 1.286-2.225 3.984-3.344 5.263-1.73 1.977-3.598 3.165-6.824 4.342-4.821 1.759-8.569 2.081-13.36 1.15z" fill="#11557c" fill-rule="nonzero" stroke="#fff" stroke-width=".74" stroke-linejoin="miter" stroke-miterlimit="4"/></svg>