<?xml version="1.0" encoding="UTF-8" standalone="no"?>
<!-- Created with Inkscape (http://www.inkscape.org/) -->
<svg
   xmlns:dc="http://purl.org/dc/elements/1.1/"
   xmlns:cc="http://creativecommons.org/ns#"
   xmlns:rdf="http://www.w3.org/1999/02/22-rdf-syntax-ns#"
   xmlns:svg="http://www.w3.org/2000/svg"
   xmlns="http://www.w3.org/2000/svg"
   xmlns:sodipodi="http://sodipodi.sourceforge.net/DTD/sodipodi-0.dtd"
   xmlns:inkscape="http://www.inkscape.org/namespaces/inkscape"
   width="345.86591"
   height="115.13724"
   id="svg2"
   sodipodi:version="0.32"
   inkscape:version="0.46"
   sodipodi:docbase="/home/olivier/hg/theano"
   sodipodi:docname="theano_logo_allblue.svg"
   inkscape:output_extension="org.inkscape.output.svg.inkscape"
   version="1.0"
   inkscape:export-filename="/home/olivier/hg/theano/theano_logo_big.png"
   inkscape:export-xdpi="273.58655"
   inkscape:export-ydpi="273.58655">
  <defs
     id="defs4">
    <inkscape:perspective
       sodipodi:type="inkscape:persp3d"
       inkscape:vp_x="0 : 57.568619 : 1"
       inkscape:vp_y="0 : 1000 : 0"
       inkscape:vp_z="345.86591 : 57.568619 : 1"
       inkscape:persp3d-origin="172.93295 : 38.379079 : 1"
       id="perspective10" />
  </defs>
  <sodipodi:namedview
     id="base"
     pagecolor="#ffffff"
     bordercolor="#666666"
     borderopacity="1.0"
     gridtolerance="10000"
     guidetolerance="10"
     objecttolerance="10"
     inkscape:pageopacity="0.0"
     inkscape:pageshadow="2"
     inkscape:zoom="7.919596"
     inkscape:cx="150.10502"
     inkscape:cy="62.175513"
     inkscape:document-units="px"
     inkscape:current-layer="layer1"
     inkscape:window-width="1280"
     inkscape:window-height="999"
     inkscape:window-x="0"
     inkscape:window-y="6"
     showguides="true"
     inkscape:guide-bbox="true"
     showgrid="false" />
  <metadata
     id="metadata7">
    <rdf:RDF>
      <cc:Work
         rdf:about="">
        <dc:format>image/svg+xml</dc:format>
        <dc:type
           rdf:resource="http://purl.org/dc/dcmitype/StillImage" />
      </cc:Work>
    </rdf:RDF>
  </metadata>
  <g
     inkscape:label="Layer 1"
     inkscape:groupmode="layer"
     id="layer1"
     transform="translate(-219.06115,-88.23416)">
    <text
       xml:space="preserve"
       style="font-size:18.79697227px;font-style:normal;font-weight:normal;fill:#7799ee;fill-opacity:1;stroke:none;stroke-width:1px;stroke-linecap:butt;stroke-linejoin:miter;stroke-opacity:1;font-family:Bitstream Vera Sans"
       x="231.83417"
       y="176.11751"
       id="text2383"
       transform="scale(0.9576453,1.0442279)"><tspan
         sodipodi:role="line"
         id="tspan2385"
         x="231.83417"
         y="176.11751"
         style="font-size:112.78182983px;font-weight:normal;fill:#7799ee;fill-opacity:1;font-family:MgOpen Modata"
         dx="0 -5.1861868 0 -6.0505762 -6.9149466 -7.3470988"
         dy="0 0 0 0.4321838 1.222396 -1.222396">Th ano</tspan></text>
    <path
       id="path5572"
       d="M 360.30331,186.0442 C 352.93124,184.43302 349.02131,181.61632 344.86871,174.92513 C 341.85385,170.06722 340.96749,166.691 340.91036,159.8477 C 340.88307,156.57894 340.96523,155.87005 341.55837,154.25663 L 342.23764,152.40894 L 343.04709,154.38142 C 343.97818,156.65034 344.88926,158.25434 345.48813,158.67896 C 345.84412,158.93139 345.93707,158.40428 346.12912,155.0437 C 346.25263,152.88189 346.43635,150.4955 346.53734,149.7406 C 346.72049,148.37172 346.72529,148.36619 348.32939,147.68014 C 351.38656,146.3726 357.07243,146.20581 367.31354,147.12322 C 372.00838,147.54379 382.11204,147.77615 383.18395,146.73057 C 384.29553,145.6463 384.43052,145.15235 384.07906,142.18115 C 383.664,138.67212 384.10482,137.87605 382.78431,134.94812 C 379.3597,127.35489 373.67914,124.11995 366.16496,124.09884 C 359.39747,124.07983 353.96911,126.86529 350.68718,133.06596 C 347.79997,138.52085 346.51251,144.36813 345.75194,155.48044 L 345.53842,158.5999 L 344.89543,157.56118 C 341.81779,152.58933 339.90944,143.90774 341.2331,137.30238 C 342.25832,132.18636 344.35097,127.74262 347.74732,123.46961 C 350.67972,119.78028 355.50423,117.66126 361.29006,116.4198 C 365.0164,115.62024 367.56603,115.62024 371.29239,116.4198 C 377.07821,117.66126 381.27138,120.03282 384.20378,123.72215 C 387.56422,127.95003 389.68992,132.43437 390.68069,137.38587 C 391.34939,140.72778 391.45824,145.79727 390.89565,147.39747 C 390.40258,148.79997 386.76863,153.36263 386.64639,152.7327 C 386.59614,152.47379 386.7008,152.02921 386.87896,151.74479 C 387.37949,150.94576 386.92697,150.61716 386.16659,151.2275 C 385.57616,151.70139 385.47306,151.71463 385.12904,151.36046 C 384.4033,150.61333 384.13612,151.38909 384.80211,152.30975 C 385.57242,153.37462 385.58609,153.73351 384.85639,153.73351 C 384.54456,153.73351 384.21759,153.83285 384.12977,153.95422 C 383.43497,154.91476 372.6575,155.14082 364.10052,154.37438 C 357.7739,153.8077 352.7425,153.92862 351.56619,154.67562 C 350.59763,155.29072 349.31517,157.46381 348.88207,159.2238 C 348.47057,160.896 348.70912,165.97127 349.29491,168.00718 C 349.88612,170.06193 351.98201,173.0543 354.16936,174.96648 C 360.28414,180.3121 370.37735,180.37343 376.52539,175.10231 C 379.61654,172.45209 382.11203,168.19453 381.37944,166.82083 C 381.19382,166.47275 381.04193,165.79571 381.04193,165.31628 C 381.04193,164.44475 381.92895,162.64608 382.51006,162.33922 C 383.32952,161.90654 384.25496,160.18197 384.25496,159.08757 C 384.25496,157.82032 384.65276,156.97778 385.25106,156.97778 C 386.18274,156.97778 386.07248,153.72523 385.09358,152.33151 C 384.34135,151.26049 384.40935,151.04042 385.2773,151.73706 C 385.83725,152.18651 386.00751,152.23287 386.00751,151.9359 C 386.00751,151.72289 386.2293,151.39449 386.50034,151.20611 C 386.94071,150.90008 386.96404,150.91675 386.71943,151.36272 C 386.56886,151.63723 386.4841,152.97245 386.53106,154.32985 C 386.60855,156.56884 386.67935,156.84009 387.29433,157.25336 C 387.84808,157.62551 388.00027,158.01901 388.1255,159.40222 C 388.23336,160.59372 388.55879,161.59922 389.22375,162.79539 C 389.99277,164.17876 390.14115,164.70445 390.02057,165.61845 C 389.93716,166.25074 389.61475,166.98023 389.28291,167.28759 C 388.55099,167.96546 385.58594,172.35176 385.28689,173.19906 C 384.74489,174.73467 382.9241,177.95761 381.7357,179.48488 C 379.89859,181.84585 377.91558,183.26507 374.48963,184.67079 C 369.37126,186.77093 365.39145,187.15623 360.30331,186.0442 z"
       style="fill:#7799ee;fill-opacity:1;stroke:#ffffff;stroke-width:0.82790953;stroke-opacity:1"
       sodipodi:nodetypes="csscccsssssssssscccsssssssssssssssssssssssssssssssssssssssc" />
  </g>
</svg>
