<?xml version="1.0" encoding="UTF-8" standalone="no"?>
<!-- Created with Inkscape (http://www.inkscape.org/) -->
<svg
   xmlns:dc="http://purl.org/dc/elements/1.1/"
   xmlns:cc="http://web.resource.org/cc/"
   xmlns:rdf="http://www.w3.org/1999/02/22-rdf-syntax-ns#"
   xmlns:svg="http://www.w3.org/2000/svg"
   xmlns="http://www.w3.org/2000/svg"
   xmlns:sodipodi="http://sodipodi.sourceforge.net/DTD/sodipodi-0.dtd"
   xmlns:inkscape="http://www.inkscape.org/namespaces/inkscape"
   width="345.86591"
   height="115.13724"
   id="svg2"
   sodipodi:version="0.32"
   inkscape:version="0.45.1"
   sodipodi:docbase="/home/olivier/hg/theano"
   sodipodi:docname="theano_logo.svg"
   inkscape:output_extension="org.inkscape.output.svg.inkscape"
   version="1.0"
   inkscape:export-filename="/home/olivier/hg/theano/theano_logo_big.png"
   inkscape:export-xdpi="273.58655"
   inkscape:export-ydpi="273.58655">
  <defs
     id="defs4" />
  <sodipodi:namedview
     id="base"
     pagecolor="#ffffff"
     bordercolor="#666666"
     borderopacity="1.0"
     gridtolerance="10000"
     guidetolerance="10"
     objecttolerance="10"
     inkscape:pageopacity="0.0"
     inkscape:pageshadow="2"
     inkscape:zoom="1.979899"
     inkscape:cx="248.50886"
     inkscape:cy="97.530852"
     inkscape:document-units="px"
     inkscape:current-layer="layer1"
     inkscape:window-width="1680"
     inkscape:window-height="1030"
     inkscape:window-x="0"
     inkscape:window-y="0"
     showguides="true"
     inkscape:guide-bbox="true" />
  <metadata
     id="metadata7">
    <rdf:RDF>
      <cc:Work
         rdf:about="">
        <dc:format>image/svg+xml</dc:format>
        <dc:type
           rdf:resource="http://purl.org/dc/dcmitype/StillImage" />
      </cc:Work>
    </rdf:RDF>
  </metadata>
  <g
     inkscape:label="Layer 1"
     inkscape:groupmode="layer"
     id="layer1"
     transform="translate(-219.06115,-88.23416)">
    <path
       id="path5572"
       d="M 245.99986,202.38198 C 235.76172,199.76305 230.3317,195.18454 224.56469,184.30815 C 220.37775,176.41173 219.14676,170.92373 219.06742,159.80009 C 219.02952,154.48681 219.14363,153.33451 219.96737,150.71192 L 220.91072,147.70853 L 222.03485,150.91475 C 223.32792,154.60284 224.5932,157.2101 225.42491,157.90035 C 225.91931,158.31066 226.04839,157.45384 226.31509,151.99127 C 226.48664,148.47733 226.74177,144.59829 226.88203,143.3712 C 227.13637,141.14611 227.14306,141.13711 229.37079,140.02194 C 233.6165,137.89661 241.51289,137.62549 255.7355,139.11671 C 262.25557,139.80033 276.27711,139.65881 278.302,138.88894 C 280.15154,138.18575 280.55926,136.52884 280.07117,131.69921 C 279.49474,125.99537 279.0548,124.08561 277.22091,119.32634 C 272.4649,106.98367 264.75123,100.69911 254.31572,100.6648 C 244.91721,100.6339 237.20308,106.18784 232.64521,116.26692 C 228.63554,125.13371 226.84755,134.63837 225.79128,152.70119 L 225.49476,157.77183 L 224.6018,156.08339 C 220.32764,148.00176 218.55416,134.3005 220.39244,123.56361 C 221.81624,115.24763 224.72248,108.02444 229.43922,101.07873 C 233.51167,95.08179 239.33503,91.22689 247.37024,89.20891 C 252.54529,87.90924 256.08615,87.90924 261.2612,89.20891 C 269.29641,91.22689 275.11977,95.08179 279.19222,101.07873 C 283.85913,107.95107 286.81123,115.24029 288.1872,123.28884 C 289.11587,128.72102 289.26704,136.96138 288.48572,139.5625 C 287.80095,141.84221 282.75423,149.25874 282.58446,148.23482 C 282.51467,147.81394 282.66002,147.09129 282.90745,146.62895 C 283.60255,145.33016 282.97412,144.79606 281.91813,145.78812 C 281.09814,146.55845 280.95497,146.57992 280.4772,146.00425 C 279.46931,144.78981 279.09827,146.0508 280.02317,147.54731 C 281.09294,149.27824 281.11194,149.86163 280.09855,149.86163 C 279.6655,149.86163 279.2114,150.02307 279.08945,150.2204 C 278.12451,151.78171 263.15706,152.14918 251.27333,150.90331 C 242.48708,149.98217 235.49959,150.17874 233.86598,151.393 C 232.52086,152.39282 230.73981,155.92513 230.13832,158.78596 C 229.56685,161.50406 229.89814,169.75383 230.71167,173.06316 C 231.53272,176.40313 234.44347,181.26714 237.48117,184.37536 C 245.97324,193.06457 259.99042,193.16426 268.52866,184.59618 C 272.82158,180.28826 276.28725,173.36771 275.26986,171.13477 C 275.01206,170.56897 274.80113,169.46845 274.80113,168.68918 C 274.80113,167.27252 276.03299,164.34881 276.84003,163.85004 C 277.97809,163.14668 279.2633,160.34344 279.2633,158.56453 C 279.2633,156.50464 279.81574,155.1351 280.64665,155.1351 C 281.94053,155.1351 281.78744,149.84815 280.42796,147.58266 C 279.38328,145.84176 279.47773,145.48404 280.68309,146.61641 C 281.46075,147.34699 281.69721,147.42235 281.69721,146.93962 C 281.69721,146.59338 282.00521,146.05957 282.38164,145.75336 C 282.9932,145.2559 283.02559,145.28301 282.68588,146.00793 C 282.47678,146.45415 282.35906,148.62448 282.4243,150.8309 C 282.5319,154.47038 282.63024,154.91126 283.48431,155.58307 C 284.25335,156.18799 284.4647,156.82757 284.6386,159.07597 C 284.78839,161.01273 285.24037,162.64716 286.16384,164.59151 C 287.23183,166.84012 287.43789,167.69463 287.27043,169.18035 C 287.15459,170.2081 286.70684,171.3939 286.24597,171.89349 C 285.2295,172.99536 281.11174,180.12521 280.69642,181.50246 C 279.94371,183.99856 277.41503,189.23736 275.76462,191.71994 C 273.21329,195.55768 270.45935,197.86457 265.70147,200.14953 C 258.59319,203.56326 253.06615,204.18955 245.99986,202.38198 z "
       style="fill:#000000;fill-opacity:1" />
    <text
       xml:space="preserve"
       style="font-size:15.53327274px;font-style:normal;font-weight:normal;fill:#7799ee;fill-opacity:1;stroke:none;stroke-width:1px;stroke-linecap:butt;stroke-linejoin:miter;stroke-opacity:1;font-family:Bitstream Vera Sans"
       x="285.01266"
       y="186.09427"
       id="text5574"
       transform="scale(1.0402212,0.961334)"><tspan
         sodipodi:role="line"
         id="tspan5576"
         x="285.01266"
         y="186.09427"
         style="font-size:93.19962311px;font-weight:normal;fill:#7799ee;fill-opacity:1;font-family:MgOpen Modata"
         dx="0 -4.2857141 -6.4285722 -5 -5.7142901 -6.0714293"
         dy="0 0 -1.3672954 0.35714287 1.0101526 -1.0101526">Theano</tspan></text>
  </g>
</svg>
